<?xml version="1.0" encoding="UTF-8" standalone="no"?>
<!-- Created with Inkscape (http://www.inkscape.org/) -->

<svg
   width="76.460655mm"
   height="94.54702mm"
   viewBox="0 0 76.460655 94.547022"
   version="1.1"
   id="svg5"
   inkscape:version="1.1 (c68e22c387, 2021-05-23)"
   sodipodi:docname="assets.svg"
   xmlns:inkscape="http://www.inkscape.org/namespaces/inkscape"
   xmlns:sodipodi="http://sodipodi.sourceforge.net/DTD/sodipodi-0.dtd"
   xmlns="http://www.w3.org/2000/svg"
   xmlns:svg="http://www.w3.org/2000/svg">
  <sodipodi:namedview
     id="namedview7"
     pagecolor="#ffffff"
     bordercolor="#666666"
     borderopacity="1.0"
     inkscape:pageshadow="2"
     inkscape:pageopacity="0.0"
     inkscape:pagecheckerboard="0"
     inkscape:document-units="mm"
     showgrid="false"
     inkscape:zoom="0.74118967"
     inkscape:cx="2091.9072"
     inkscape:cy="1028.7515"
     inkscape:window-width="1920"
     inkscape:window-height="1017"
     inkscape:window-x="1912"
     inkscape:window-y="1072"
     inkscape:window-maximized="1"
     inkscape:current-layer="layer1"
     lock-margins="true"
     fit-margin-top="10"
     fit-margin-left="10"
     fit-margin-right="10"
     fit-margin-bottom="10"
     inkscape:showpageshadow="2"
     inkscape:deskcolor="#d1d1d1" />
  <defs
     id="defs2" />
  <g
     inkscape:label="Layer 1"
     inkscape:groupmode="layer"
     id="layer1"
     transform="translate(-397.14956,13.982329)">
    <g
       id="g220"
       inkscape:export-filename="mat_04.svg"
       inkscape:export-xdpi="150"
       inkscape:export-ydpi="150"
       transform="matrix(1.7550127,0,0,1.7550127,-293.25483,14.481717)"
       style="stroke-width:0.569796">
      <rect
         style="fill:#ffccaa;stroke-width:0.569796;stroke-linecap:round;paint-order:stroke fill markers"
         id="rect835-5-3-0-4-13-7-8-2-8-5-3"
         width="6.3832111"
         height="6.3832111"
         x="401.6557"
         y="2.3525662"
         inkscape:export-xdpi="150"
         inkscape:export-ydpi="150"
         inkscape:export-filename="mat_01.svg" />
      <rect
         style="opacity:0.3;fill:#afc6e9;stroke-width:0.569796;stroke-linecap:round;paint-order:stroke fill markers"
         id="rect835-5-0-10-6-0-3-0-3-6-0-55-9"
         width="6.3832111"
         height="6.3832111"
         x="401.6557"
         y="9.5820894"
         inkscape:export-xdpi="150"
         inkscape:export-ydpi="150" />
      <rect
         style="opacity:0.3;fill:#afc6e9;stroke-width:0.569796;stroke-linecap:round;paint-order:stroke fill markers"
         id="rect835-5-1-5-0-5-3-4-9-6-6-8-0"
         width="6.3832111"
         height="6.3832111"
         x="401.6557"
         y="16.811581"
         inkscape:export-xdpi="150"
         inkscape:export-ydpi="150" />
      <rect
         style="fill:#ffccaa;stroke-width:0.569796;stroke-linecap:round;paint-order:stroke fill markers"
         id="rect835-5-0-1-17-0-9-28-4-2-6-4-2-5"
         width="6.3832111"
         height="6.3832111"
         x="401.6557"
         y="24.041115"
         inkscape:export-xdpi="150"
         inkscape:export-ydpi="150" />
      <rect
         style="opacity:0.3;fill:#ffccaa;fill-opacity:1;stroke-width:0.569796;stroke-linecap:round;paint-order:stroke fill markers"
         id="rect835-5-6-4-2-9-4-2-9-5-1-9-6"
         width="6.3832111"
         height="6.3832111"
         x="408.88519"
         y="2.3525662"
         inkscape:export-xdpi="150"
         inkscape:export-ydpi="150" />
      <rect
         style="opacity:0.3;fill:#ffccaa;fill-opacity:1;stroke-width:0.569796;stroke-linecap:round;paint-order:stroke fill markers"
         id="rect835-5-0-3-3-8-5-7-6-0-9-0-8-3"
         width="6.3832111"
         height="6.3832111"
         x="408.88519"
         y="9.5820894"
         inkscape:export-xdpi="150"
         inkscape:export-ydpi="150" />
      <rect
         style="opacity:0.3;fill:#ffccaa;fill-opacity:1;stroke-width:0.569796;stroke-linecap:round;paint-order:stroke fill markers"
         id="rect835-5-1-33-2-9-53-6-4-0-3-5-2-6"
         width="6.3832111"
         height="6.3832111"
         x="408.88519"
         y="16.811581"
         inkscape:export-xdpi="150"
         inkscape:export-ydpi="150" />
      <rect
         style="opacity:0.3;fill:#afc6e9;stroke-width:0.569796;stroke-linecap:round;paint-order:stroke fill markers"
         id="rect835-5-0-1-9-3-0-1-9-9-2-8-3-0-3"
         width="6.3832111"
         height="6.3832111"
         x="408.88519"
         y="24.041115"
         inkscape:export-xdpi="150"
         inkscape:export-ydpi="150" />
      <rect
         style="fill:#5fd38d;fill-opacity:1;stroke-width:0.569796;stroke-linecap:round;paint-order:stroke fill markers"
         id="rect835-5-7-3-5-2-48-4-4-7-1-7-0"
         width="6.3832111"
         height="6.3832111"
         x="416.11472"
         y="2.3525662"
         inkscape:export-xdpi="150"
         inkscape:export-ydpi="150" />
      <rect
         style="opacity:0.3;fill:#ffccaa;fill-opacity:1;stroke-width:0.569796;stroke-linecap:round;paint-order:stroke fill markers"
         id="rect835-5-0-5-8-7-2-4-7-4-9-6-4-8"
         width="6.3832111"
         height="6.3832111"
         x="416.11472"
         y="9.5820894"
         inkscape:export-xdpi="150"
         inkscape:export-ydpi="150" />
      <rect
         style="opacity:0.3;fill:#ffccaa;fill-opacity:1;stroke-width:0.569796;stroke-linecap:round;paint-order:stroke fill markers"
         id="rect835-5-1-9-3-8-5-5-2-7-7-1-8-4"
         width="6.3832111"
         height="6.3832111"
         x="416.11472"
         y="16.811581"
         inkscape:export-xdpi="150"
         inkscape:export-ydpi="150" />
      <rect
         style="fill:#5fd38d;fill-opacity:1;stroke-width:0.569796;stroke-linecap:round;paint-order:stroke fill markers"
         id="rect835-5-0-1-0-8-2-0-6-3-0-2-2-5-0"
         width="6.3832111"
         height="6.3832111"
         x="416.11472"
         y="24.041115"
         inkscape:export-xdpi="150"
         inkscape:export-ydpi="150" />
      <rect
         style="opacity:0.3;fill:#ffccaa;fill-opacity:1;stroke-width:0.569796;stroke-linecap:round;paint-order:stroke fill markers"
         id="rect835-5-00-4-6-5-2-2-9-6-4-8-4"
         width="6.3832111"
         height="6.3832111"
         x="423.34424"
         y="2.3525662"
         inkscape:export-xdpi="150"
         inkscape:export-ydpi="150" />
      <rect
         style="opacity:0.3;fill:#afc6e9;fill-opacity:1;stroke-width:0.569796;stroke-linecap:round;paint-order:stroke fill markers"
         id="rect835-5-0-0-9-4-1-9-5-8-7-4-3-6"
         width="6.3832111"
         height="6.3832111"
         x="423.34424"
         y="9.5820894"
         inkscape:export-xdpi="150"
         inkscape:export-ydpi="150" />
      <rect
         style="opacity:0.3;fill:#5fd38d;stroke-width:0.569796;stroke-linecap:round;paint-order:stroke fill markers"
         id="rect835-5-1-93-1-0-42-8-9-0-6-2-0-4"
         width="6.3832111"
         height="6.3832111"
         x="423.34424"
         y="16.811581"
         inkscape:export-xdpi="150"
         inkscape:export-ydpi="150" />
      <rect
         style="opacity:0.3;fill:#ffccaa;fill-opacity:1;stroke-width:0.569796;stroke-linecap:round;paint-order:stroke fill markers"
         id="rect835-5-0-1-3-9-9-4-4-7-7-1-1-6-6"
         width="6.3832111"
         height="6.3832111"
         x="423.34424"
         y="24.041115"
         inkscape:export-xdpi="150"
         inkscape:export-ydpi="150" />
      <rect
         style="opacity:0.3;fill:#ffccaa;fill-opacity:1;stroke-width:0.569796;stroke-linecap:round;paint-order:stroke fill markers"
         id="rect835-5-9-2-4-3-4-1-2-2-7-2-4"
         width="6.3832111"
         height="6.3832111"
         x="430.57376"
         y="2.3525662"
         inkscape:export-xdpi="150"
         inkscape:export-ydpi="150" />
      <rect
         style="opacity:0.3;fill:#ffccaa;fill-opacity:1;stroke-width:0.569796;stroke-linecap:round;paint-order:stroke fill markers"
         id="rect835-5-0-55-3-4-5-5-4-9-5-5-2-3"
         width="6.3832111"
         height="6.3832111"
         x="430.57376"
         y="9.5820894"
         inkscape:export-xdpi="150"
         inkscape:export-ydpi="150" />
      <rect
         style="opacity:0.3;fill:#ffccaa;fill-opacity:1;stroke-width:0.569796;stroke-linecap:round;paint-order:stroke fill markers"
         id="rect835-5-1-7-1-1-29-3-3-6-5-3-5-8"
         width="6.3832111"
         height="6.3832111"
         x="430.57376"
         y="16.811581"
         inkscape:export-xdpi="150"
         inkscape:export-ydpi="150" />
      <rect
         style="opacity:0.3;fill:#afc6e9;fill-opacity:1;stroke-width:0.569796;stroke-linecap:round;paint-order:stroke fill markers"
         id="rect835-5-0-1-1-5-5-4-4-2-0-6-0-2-4"
         width="6.3832111"
         height="6.3832111"
         x="430.57376"
         y="24.041115"
         inkscape:export-xdpi="150"
         inkscape:export-ydpi="150" />
      <rect
         style="fill:#ffccaa;stroke-width:0.569796;stroke-linecap:round;paint-order:stroke fill markers"
         id="rect1283-9-8-9-1-5-7-9-27-0"
         width="6.3832111"
         height="6.3832111"
         x="401.6557"
         y="31.270626"
         inkscape:export-xdpi="150"
         inkscape:export-ydpi="150" />
      <rect
         style="opacity:0.3;fill:#ffccaa;fill-opacity:1;stroke-width:0.569796;stroke-linecap:round;paint-order:stroke fill markers"
         id="rect1285-9-09-47-1-8-6-1-1-0"
         width="6.3832111"
         height="6.3832111"
         x="408.88519"
         y="31.270626"
         inkscape:export-xdpi="150"
         inkscape:export-ydpi="150" />
      <rect
         style="fill:#afc6e9;fill-opacity:1;stroke-width:0.569796;stroke-linecap:round;paint-order:stroke fill markers"
         id="rect1287-6-6-8-0-7-8-9-5-9"
         width="6.3832111"
         height="6.3832111"
         x="416.11472"
         y="31.270626"
         inkscape:export-xdpi="150"
         inkscape:export-ydpi="150" />
      <rect
         style="opacity:0.3;fill:#ffccaa;fill-opacity:1;stroke-width:0.569796;stroke-linecap:round;paint-order:stroke fill markers"
         id="rect1289-2-3-7-6-9-2-9-2-3"
         width="6.3832111"
         height="6.3832111"
         x="423.34424"
         y="31.270626"
         inkscape:export-xdpi="150"
         inkscape:export-ydpi="150" />
      <rect
         style="opacity:0.3;fill:#afc6e9;fill-opacity:1;stroke-width:0.569796;stroke-linecap:round;paint-order:stroke fill markers"
         id="rect1291-0-0-3-7-6-7-0-1-7"
         width="6.3832111"
         height="6.3832111"
         x="430.57376"
         y="31.270626"
         inkscape:export-xdpi="150"
         inkscape:export-ydpi="150" />
      <path
         style="-inkscape-font-specification:'Roboto Mono Bold';fill:#4d4d4d;stroke-width:0.150758"
         d="m 405.46731,0.52592303 h -2.13281 v 0.02197 l 0.33545,0.92871097 h 0.35449 l -0.19336,-0.53906297 h 1.63623 z m -0.23584,-1.234863 q 0.1128,0 0.18897,-0.07617 0.0762,-0.07617 0.0762,-0.206543 0,-0.12890603 -0.0747,-0.20507803 -0.0762,-0.07764 -0.19043,-0.07764 -0.11425,0 -0.19189,0.07617 -0.0776,0.07471 -0.0776,0.20654303 0,0.133301 0.0791,0.208008 0.0776,0.07471 0.19043,0.07471 z m -1.20996,0 q 0.1128,0 0.18897,-0.07617 0.0762,-0.07617 0.0762,-0.206543 0,-0.12890603 -0.0747,-0.20507803 -0.0762,-0.07764 -0.19043,-0.07764 -0.11425,0 -0.19189,0.07617 -0.0776,0.07471 -0.0776,0.20654303 0,0.133301 0.0791,0.208008 0.0776,0.07471 0.19043,0.07471 z m 1.4458,-2.76269403 h -0.32666 v 0.936035 l -0.4248,-0.401368 q -0.10693,-0.104003 -0.20361,-0.188964 -0.0981,-0.08496 -0.1919,-0.146485 -0.0937,-0.06006 -0.18896,-0.09228 -0.0967,-0.03369 -0.20215,-0.03369 -0.13916,0 -0.25342,0.04395 -0.11572,0.04395 -0.19775,0.127441 -0.082,0.08496 -0.12745,0.210938 -0.0454,0.124511 -0.0454,0.287109 0,0.169922 0.0557,0.310547 0.0542,0.13916 0.14941,0.237305 0.0952,0.09961 0.22266,0.153808 0.12598,0.0542 0.26807,0.0542 v -0.408691 q -0.0864,0 -0.15381,-0.02197 -0.0674,-0.02197 -0.1128,-0.06445 -0.0439,-0.04102 -0.0659,-0.102539 -0.0234,-0.06299 -0.0234,-0.145019 0,-0.06299 0.0205,-0.114258 0.0205,-0.05273 0.0586,-0.09082 0.0396,-0.03662 0.0952,-0.05713 0.0557,-0.02051 0.12745,-0.02051 0.0483,0 0.0996,0.01611 0.0513,0.01465 0.10986,0.04834 0.0601,0.03516 0.13183,0.09082 0.0718,0.05566 0.15967,0.136231 l 0.74121,0.689941 h 0.27832 z m -0.81152,-1.794435 h -0.50977 q -0.20654,0 -0.36328,0.04834 -0.1582,0.04834 -0.26513,0.137695 -0.10547,0.09082 -0.15967,0.219727 -0.0542,0.128906 -0.0542,0.290039 0,0.159668 0.0542,0.288574 0.0542,0.127442 0.15967,0.216798 0.10693,0.09082 0.26513,0.13916 0.15674,0.04834 0.36328,0.04834 h 0.50977 q 0.20654,0 0.36475,-0.04834 0.15673,-0.0498 0.2622,-0.140625 0.10694,-0.08936 0.16114,-0.218263 0.0542,-0.128906 0.0542,-0.288574 0,-0.161133 -0.0542,-0.290039 -0.0542,-0.128906 -0.16114,-0.218262 -0.10547,-0.08935 -0.2622,-0.13623 -0.15821,-0.04834 -0.36475,-0.04834 z m -0.17578,0.978516 q -0.0454,0 -0.0688,0 -0.0234,0 -0.0937,0 h -0.23584 q -0.11865,0 -0.20508,-0.01758 -0.0864,-0.01904 -0.14062,-0.05713 -0.0513,-0.03516 -0.0762,-0.08643 -0.0264,-0.05273 -0.0264,-0.121582 0,-0.06152 0.0205,-0.109864 0.019,-0.0498 0.0601,-0.0835 0.0513,-0.04395 0.13769,-0.06592 0.085,-0.02344 0.20508,-0.02637 z m 0.2373,-0.56836 q 0.11866,0 0.20655,0.01904 0.0864,0.01758 0.14209,0.0542 0.0527,0.03516 0.0791,0.08789 0.0249,0.05273 0.0249,0.121582 0,0.07471 -0.0293,0.128906 -0.0293,0.0542 -0.0894,0.08936 -0.0498,0.03076 -0.12451,0.04834 -0.0747,0.01611 -0.17139,0.01904 l -0.42188,-0.56836 q 0.0425,0 0.0659,0 0.022,0 0.0703,0 z m -0.0615,-2.2104485 h -0.50977 q -0.20654,0 -0.36328,0.04834 -0.1582,0.04834 -0.26513,0.137695 -0.10547,0.09082 -0.15967,0.219727 -0.0542,0.128906 -0.0542,0.290039 0,0.159668 0.0542,0.288574 0.0542,0.127441 0.15967,0.216797 0.10693,0.09082 0.26513,0.13916 0.15674,0.04834 0.36328,0.04834 h 0.50977 q 0.20654,0 0.36475,-0.04834 0.15673,-0.0498 0.2622,-0.140625 0.10694,-0.08935 0.16114,-0.218262 0.0542,-0.128906 0.0542,-0.288574 0,-0.161133 -0.0542,-0.290039 -0.0542,-0.128906 -0.16114,-0.218262 -0.10547,-0.08935 -0.2622,-0.13623 -0.15821,-0.04834 -0.36475,-0.04834 z m -0.17578,0.978516 q -0.0454,0 -0.0688,0 -0.0234,0 -0.0937,0 h -0.23584 q -0.11865,0 -0.20508,-0.01758 -0.0864,-0.01904 -0.14062,-0.05713 -0.0513,-0.03516 -0.0762,-0.08643 -0.0264,-0.05273 -0.0264,-0.121582 0,-0.06152 0.0205,-0.109864 0.019,-0.0498 0.0601,-0.0835 0.0513,-0.04394 0.13769,-0.06592 0.085,-0.02344 0.20508,-0.02637 z m 0.2373,-0.56836 q 0.11866,0 0.20655,0.01904 0.0864,0.01758 0.14209,0.0542 0.0527,0.03516 0.0791,0.08789 0.0249,0.05273 0.0249,0.121582 0,0.07471 -0.0293,0.128906 -0.0293,0.0542 -0.0894,0.08936 -0.0498,0.03076 -0.12451,0.04834 -0.0747,0.01611 -0.17139,0.01904 l -0.42188,-0.56836 q 0.0425,0 0.0659,0 0.022,0 0.0703,0 z m -0.0264,-2.248535 h -0.32959 v 1.220215 h 0.32959 z m -0.46875,-0.783691 h 0.3164 v -0.221192 q 0,-0.0835 0.019,-0.1494135 0.019,-0.06738 0.0586,-0.115722 0.0396,-0.04687 0.10107,-0.07178 0.0615,-0.0249 0.14795,-0.0249 0.0688,0 0.12451,0.02197 0.0557,0.02051 0.0937,0.06152 0.0425,0.04248 0.0645,0.105469 0.022,0.06299 0.022,0.1420895 0,0.07031 -0.0205,0.128906 -0.022,0.05859 -0.0601,0.101074 -0.0366,0.04395 -0.0879,0.06738 -0.0527,0.02344 -0.11425,0.02344 v 0.407227 q 0.15527,0 0.26953,-0.06006 0.11425,-0.06152 0.18896,-0.162597 0.0762,-0.101075 0.11426,-0.229981 0.0366,-0.130371 0.0366,-0.266601 0,-0.1582035 -0.041,-0.2944335 -0.0425,-0.137695 -0.12304,-0.237305 -0.0791,-0.09961 -0.19629,-0.156738 -0.11719,-0.05713 -0.2666,-0.05713 -0.085,0 -0.16114,0.02051 -0.0762,0.02051 -0.14062,0.06299 -0.063,0.04248 -0.11279,0.108399 -0.0498,0.06445 -0.082,0.153808 -0.0366,-0.07617 -0.0864,-0.134765 -0.0513,-0.05859 -0.11133,-0.09815 -0.0601,-0.03955 -0.12598,-0.06006 -0.0674,-0.02051 -0.13623,-0.02051 -0.14941,0 -0.2622,0.05273 -0.11426,0.05127 -0.1919,0.14502 -0.0762,0.09375 -0.11425,0.225586 -0.0396,0.131835 -0.0396,0.2900385 0,0.146484 0.0425,0.273925 0.0425,0.125977 0.11866,0.219727 0.0776,0.09375 0.18457,0.147949 0.10693,0.05273 0.2373,0.05273 v -0.407227 q -0.0586,0 -0.10547,-0.02344 -0.0469,-0.02344 -0.0806,-0.06445 -0.0322,-0.03955 -0.0498,-0.09229 -0.0176,-0.0542 -0.0176,-0.115722 0,-0.074709 0.0205,-0.1303715 0.0205,-0.05713 0.0571,-0.09375 0.0381,-0.03662 0.0908,-0.0542 0.0513,-0.01904 0.11426,-0.01904 0.0644,0 0.12012,0.01904 0.0542,0.01758 0.0923,0.0542 0.0439,0.03955 0.0688,0.104004 0.0234,0.06299 0.0234,0.1508785 z m 0.43359,-2.7788085 H 404.146 q -0.20654,0 -0.36328,0.04834 -0.1582,0.04834 -0.26513,0.137695 -0.10547,0.09082 -0.15967,0.219727 -0.0542,0.128906 -0.0542,0.290039 0,0.159668 0.0542,0.288574 0.0542,0.127441 0.15967,0.216797 0.10693,0.09082 0.26513,0.13916 0.15674,0.04834 0.36328,0.04834 h 0.50977 q 0.20654,0 0.36475,-0.04834 0.15673,-0.04981 0.2622,-0.140625 0.10694,-0.08935 0.16114,-0.218262 0.0542,-0.128906 0.0542,-0.288574 0,-0.161133 -0.0542,-0.290039 -0.0542,-0.128906 -0.16114,-0.218262 -0.10547,-0.08935 -0.2622,-0.13623 -0.15821,-0.04834 -0.36475,-0.04834 z m -0.17578,0.978516 q -0.0454,0 -0.0688,0 -0.0234,0 -0.0937,0 h -0.23584 q -0.11865,0 -0.20508,-0.01758 -0.0864,-0.01904 -0.14062,-0.05713 -0.0513,-0.03516 -0.0762,-0.08643 -0.0264,-0.05273 -0.0264,-0.121582 0,-0.06152 0.0205,-0.109863 0.019,-0.04981 0.0601,-0.0835 0.0513,-0.04395 0.13769,-0.06592 0.085,-0.02344 0.20508,-0.02637 z m 0.2373,-0.56836 q 0.11866,0 0.20655,0.01904 0.0864,0.01758 0.14209,0.0542 0.0527,0.03516 0.0791,0.08789 0.0249,0.05273 0.0249,0.121582 0,0.07471 -0.0293,0.128906 -0.0293,0.0542 -0.0894,0.08936 -0.0498,0.03076 -0.12451,0.04834 -0.0747,0.01611 -0.17139,0.01904 l -0.42188,-0.56836 q 0.0425,0 0.0659,0 0.022,0 0.0703,0 z m -0.0615,-2.210449 h -0.50977 q -0.20654,0 -0.36328,0.04834 -0.1582,0.04834 -0.26513,0.137695 -0.10547,0.09082 -0.15967,0.219727 -0.0542,0.128906 -0.0542,0.290039 0,0.159668 0.0542,0.288574 0.0542,0.127441 0.15967,0.216797 0.10693,0.09082 0.26513,0.13916 0.15674,0.04834 0.36328,0.04834 h 0.50977 q 0.20654,0 0.36475,-0.04834 0.15673,-0.0498 0.2622,-0.140625 0.10694,-0.08935 0.16114,-0.218262 0.0542,-0.128906 0.0542,-0.288574 0,-0.161133 -0.0542,-0.290039 -0.0542,-0.128906 -0.16114,-0.218262 -0.10547,-0.08935 -0.2622,-0.13623 -0.15821,-0.04834 -0.36475,-0.04834 z m -0.17578,0.978516 q -0.0454,0 -0.0688,0 -0.0234,0 -0.0937,0 h -0.23584 q -0.11865,0 -0.20508,-0.01758 -0.0864,-0.01904 -0.14062,-0.05713 -0.0513,-0.03516 -0.0762,-0.08643 -0.0264,-0.05273 -0.0264,-0.121582 0,-0.06152 0.0205,-0.109863 0.019,-0.04981 0.0601,-0.0835 0.0513,-0.04394 0.13769,-0.06592 0.085,-0.02344 0.20508,-0.02637 z m 0.2373,-0.56836 q 0.11866,0 0.20655,0.01904 0.0864,0.01758 0.14209,0.0542 0.0527,0.03516 0.0791,0.08789 0.0249,0.05273 0.0249,0.121582 0,0.07471 -0.0293,0.128906 -0.0293,0.0542 -0.0894,0.08936 -0.0498,0.03076 -0.12451,0.04834 -0.0747,0.01611 -0.17139,0.01904 l -0.42188,-0.56836 q 0.0425,0 0.0659,0 0.022,0 0.0703,0 z"
         id="text1181-1-9-0-2-59-4-1-6-7-5-1-5"
         aria-label="1:200-300" />
      <path
         style="-inkscape-font-specification:'Roboto Mono Bold';opacity:0.3;fill:#4d4d4d;stroke-width:0.150758"
         d="m 412.93173,0.52592303 h -2.13281 v 0.02197 l 0.33545,0.92871097 h 0.35449 L 411.2955,0.93754103 h 1.63623 z m -0.23584,-1.234863 q 0.11279,0 0.18897,-0.07617 0.0762,-0.07617 0.0762,-0.206543 0,-0.12890603 -0.0747,-0.20507803 -0.0762,-0.07764 -0.19043,-0.07764 -0.11426,0 -0.19189,0.07617 -0.0776,0.07471 -0.0776,0.20654303 0,0.133301 0.0791,0.208008 0.0776,0.07471 0.19043,0.07471 z m -1.20996,0 q 0.11279,0 0.18896,-0.07617 0.0762,-0.07617 0.0762,-0.206543 0,-0.12890603 -0.0747,-0.20507803 -0.0762,-0.07764 -0.19043,-0.07764 -0.11426,0 -0.1919,0.07617 -0.0776,0.07471 -0.0776,0.20654303 0,0.133301 0.0791,0.208008 0.0776,0.07471 0.19043,0.07471 z m 0.39551,-1.38867103 0.0806,-0.325195 q -0.0234,-0.02344 -0.0439,-0.0498 -0.022,-0.02637 -0.0381,-0.06006 -0.0161,-0.03369 -0.0264,-0.07764 -0.0103,-0.04395 -0.0103,-0.104004 0,-0.08936 0.0278,-0.155274 0.0278,-0.06592 0.0791,-0.109863 0.0513,-0.04395 0.12305,-0.06445 0.0703,-0.02197 0.15528,-0.02197 0.0864,0 0.16113,0.01758 0.0747,0.01611 0.1289,0.05127 0.0542,0.03662 0.085,0.09522 0.0308,0.05713 0.0308,0.13916 0,0.133301 -0.0762,0.219726 -0.0762,0.08496 -0.21534,0.09961 v 0.401354 q 0.14795,-0.0044 0.26367,-0.06592 0.11426,-0.06299 0.19336,-0.162598 0.0791,-0.09961 0.12012,-0.22705 0.041,-0.128907 0.041,-0.266602 0,-0.181641 -0.0571,-0.314941 -0.0571,-0.133301 -0.15528,-0.221192 -0.0981,-0.08789 -0.22705,-0.130371 -0.1289,-0.04248 -0.27246,-0.04248 -0.16845,0 -0.30175,0.04395 -0.13331,0.04395 -0.22559,0.125978 -0.0923,0.0835 -0.14063,0.205078 -0.0498,0.120117 -0.0498,0.273925 0,0.108399 0.0278,0.191895 0.0278,0.0835 0.0542,0.128906 l -0.46875,-0.05127 v -0.848145 h -0.3457 v 1.183594 z m 0.23877,-3.168458 h -0.50977 q -0.20654,0 -0.36328,0.04834 -0.1582,0.04834 -0.26514,0.137695 -0.10547,0.09082 -0.15966,0.219727 -0.0542,0.128906 -0.0542,0.290039 0,0.159668 0.0542,0.288574 0.0542,0.127442 0.15966,0.216798 0.10694,0.09082 0.26514,0.13916 0.15674,0.04834 0.36328,0.04834 h 0.50977 q 0.20654,0 0.36474,-0.04834 0.15674,-0.0498 0.26221,-0.140625 0.10693,-0.08936 0.16113,-0.218263 0.0542,-0.128906 0.0542,-0.288574 0,-0.161133 -0.0542,-0.290039 -0.0542,-0.128906 -0.16113,-0.218262 -0.10547,-0.08935 -0.26221,-0.13623 -0.1582,-0.04834 -0.36474,-0.04834 z m -0.17578,0.978516 q -0.0454,0 -0.0688,0 -0.0234,0 -0.0937,0 h -0.23584 q -0.11865,0 -0.20508,-0.01758 -0.0864,-0.01904 -0.14063,-0.05713 -0.0513,-0.03516 -0.0762,-0.08643 -0.0264,-0.05273 -0.0264,-0.121582 0,-0.06152 0.0205,-0.109864 0.019,-0.0498 0.0601,-0.0835 0.0513,-0.04395 0.1377,-0.06592 0.085,-0.02344 0.20508,-0.02637 z m 0.2373,-0.56836 q 0.11865,0 0.20654,0.01904 0.0864,0.01758 0.14209,0.0542 0.0527,0.03516 0.0791,0.08789 0.0249,0.05273 0.0249,0.121582 0,0.07471 -0.0293,0.128906 -0.0293,0.0542 -0.0894,0.08936 -0.0498,0.03076 -0.12451,0.04834 -0.0747,0.01611 -0.17138,0.01904 l -0.42188,-0.56836 q 0.0425,0 0.0659,0 0.022,0 0.0703,0 z m -0.0615,-2.2104485 h -0.50977 q -0.20654,0 -0.36328,0.04834 -0.1582,0.04834 -0.26514,0.137695 -0.10547,0.09082 -0.15966,0.219727 -0.0542,0.128906 -0.0542,0.290039 0,0.159668 0.0542,0.288574 0.0542,0.127441 0.15966,0.216797 0.10694,0.09082 0.26514,0.13916 0.15674,0.04834 0.36328,0.04834 h 0.50977 q 0.20654,0 0.36474,-0.04834 0.15674,-0.0498 0.26221,-0.140625 0.10693,-0.08936 0.16113,-0.218262 0.0542,-0.128906 0.0542,-0.288574 0,-0.161133 -0.0542,-0.290039 -0.0542,-0.128906 -0.16113,-0.218262 -0.10547,-0.08935 -0.26221,-0.13623 -0.1582,-0.04834 -0.36474,-0.04834 z m -0.17578,0.978516 q -0.0454,0 -0.0688,0 -0.0234,0 -0.0937,0 h -0.23584 q -0.11865,0 -0.20508,-0.01758 -0.0864,-0.01904 -0.14063,-0.05713 -0.0513,-0.03516 -0.0762,-0.08643 -0.0264,-0.05273 -0.0264,-0.121582 0,-0.06152 0.0205,-0.109864 0.019,-0.0498 0.0601,-0.0835 0.0513,-0.04394 0.1377,-0.06592 0.085,-0.02344 0.20508,-0.02637 z m 0.2373,-0.56836 q 0.11865,0 0.20654,0.01904 0.0864,0.01758 0.14209,0.0542 0.0527,0.03516 0.0791,0.08789 0.0249,0.05273 0.0249,0.121582 0,0.07471 -0.0293,0.128906 -0.0293,0.0542 -0.0894,0.08936 -0.0498,0.03076 -0.12451,0.04834 -0.0747,0.01611 -0.17138,0.01904 l -0.42188,-0.56836 q 0.0425,0 0.0659,0 0.022,0 0.0703,0 z m -0.0264,-2.248535 h -0.32959 v 1.220215 h 0.32959 z m -1.12939,-1.7666015 h -0.22705 v 1.4985355 h 0.33252 v -1.0708005 l 1.80029,0.8320305 v -0.429199 z m 1.09424,-1.795898 h -0.50977 q -0.20654,0 -0.36328,0.04834 -0.1582,0.04834 -0.26514,0.137695 -0.10547,0.09082 -0.15966,0.219727 -0.0542,0.128906 -0.0542,0.290039 0,0.159668 0.0542,0.288574 0.0542,0.127441 0.15966,0.216797 0.10694,0.09082 0.26514,0.13916 0.15674,0.04834 0.36328,0.04834 h 0.50977 q 0.20654,0 0.36474,-0.04834 0.15674,-0.04981 0.26221,-0.140625 0.10693,-0.08936 0.16113,-0.218262 0.0542,-0.128906 0.0542,-0.288574 0,-0.161133 -0.0542,-0.290039 -0.0542,-0.128906 -0.16113,-0.218262 -0.10547,-0.08935 -0.26221,-0.13623 -0.1582,-0.04834 -0.36474,-0.04834 z m -0.17578,0.978516 q -0.0454,0 -0.0688,0 -0.0234,0 -0.0937,0 h -0.23584 q -0.11865,0 -0.20508,-0.01758 -0.0864,-0.01904 -0.14063,-0.05713 -0.0513,-0.03516 -0.0762,-0.08643 -0.0264,-0.05273 -0.0264,-0.121582 0,-0.06152 0.0205,-0.109863 0.019,-0.04981 0.0601,-0.0835 0.0513,-0.04395 0.1377,-0.06592 0.085,-0.02344 0.20508,-0.02637 z m 0.2373,-0.56836 q 0.11865,0 0.20654,0.01904 0.0864,0.01758 0.14209,0.0542 0.0527,0.03516 0.0791,0.08789 0.0249,0.05273 0.0249,0.121582 0,0.07471 -0.0293,0.128906 -0.0293,0.0542 -0.0894,0.08936 -0.0498,0.03076 -0.12451,0.04834 -0.0747,0.01611 -0.17138,0.01904 l -0.42188,-0.56836 q 0.0425,0 0.0659,0 0.022,0 0.0703,0 z m -0.0615,-2.210449 h -0.50977 q -0.20654,0 -0.36328,0.04834 -0.1582,0.04834 -0.26514,0.137695 -0.10547,0.09082 -0.15966,0.219727 -0.0542,0.128906 -0.0542,0.290039 0,0.159668 0.0542,0.288574 0.0542,0.127441 0.15966,0.216797 0.10694,0.09082 0.26514,0.13916 0.15674,0.04834 0.36328,0.04834 h 0.50977 q 0.20654,0 0.36474,-0.04834 0.15674,-0.0498 0.26221,-0.140625 0.10693,-0.08935 0.16113,-0.218262 0.0542,-0.128906 0.0542,-0.288574 0,-0.161133 -0.0542,-0.290039 -0.0542,-0.128906 -0.16113,-0.218262 -0.10547,-0.08935 -0.26221,-0.13623 -0.1582,-0.04834 -0.36474,-0.04834 z m -0.17578,0.978516 q -0.0454,0 -0.0688,0 -0.0234,0 -0.0937,0 h -0.23584 q -0.11865,0 -0.20508,-0.01758 -0.0864,-0.01904 -0.14063,-0.05713 -0.0513,-0.03516 -0.0762,-0.08643 -0.0264,-0.05273 -0.0264,-0.121582 0,-0.06152 0.0205,-0.109863 0.019,-0.04981 0.0601,-0.0835 0.0513,-0.04394 0.1377,-0.06592 0.085,-0.02344 0.20508,-0.02637 z m 0.2373,-0.56836 q 0.11865,0 0.20654,0.01904 0.0864,0.01758 0.14209,0.0542 0.0527,0.03516 0.0791,0.08789 0.0249,0.05273 0.0249,0.121582 0,0.07471 -0.0293,0.128906 -0.0293,0.0542 -0.0894,0.08936 -0.0498,0.03076 -0.12451,0.04834 -0.0747,0.01611 -0.17138,0.01904 l -0.42188,-0.56836 q 0.0425,0 0.0659,0 0.022,0 0.0703,0 z"
         id="text1181-1-9-0-4-37-8-7-6-9-9-7-0-7"
         aria-label="1:500-700" />
      <path
         style="-inkscape-font-specification:'Roboto Mono Bold';fill:#4d4d4d;stroke-width:0.150758"
         d="m 420.16916,-0.02193397 h -0.32666 v 0.936035 l -0.42481,-0.401367 q -0.10693,-0.104003 -0.20361,-0.188964 -0.0981,-0.08496 -0.1919,-0.146484 -0.0937,-0.06006 -0.18896,-0.09229 -0.0967,-0.03369 -0.20215,-0.03369 -0.13916,0 -0.25342,0.04395 -0.11572,0.04395 -0.19775,0.127443 -0.082,0.08496 -0.12744,0.210937 -0.0454,0.124512 -0.0454,0.287109 0,0.169922 0.0557,0.31054697 0.0542,0.13916 0.14942,0.237305 0.0952,0.09961 0.22265,0.153809 0.12598,0.0542 0.26807,0.0542 v -0.40869 q -0.0864,0 -0.15381,-0.02197 -0.0674,-0.02197 -0.11279,-0.06445 -0.0439,-0.04102 -0.0659,-0.102539 -0.0234,-0.06299 -0.0234,-0.14502 0,-0.06299 0.0205,-0.114258 0.0205,-0.05273 0.0586,-0.09082 0.0396,-0.03662 0.0952,-0.05713 0.0557,-0.02051 0.12744,-0.02051 0.0483,0 0.0996,0.01611 0.0513,0.01465 0.10986,0.04834 0.0601,0.03516 0.13184,0.09082 0.0718,0.05566 0.15967,0.13623 l 0.74121,0.689941 h 0.27832 z m -0.23584,-0.83789 q 0.11279,0 0.18896,-0.07617 0.0762,-0.07617 0.0762,-0.20654303 0,-0.128905 -0.0747,-0.205077 -0.0762,-0.07764 -0.19043,-0.07764 -0.11426,0 -0.1919,0.07617 -0.0776,0.07471 -0.0776,0.206543 0,0.133301 0.0791,0.20800803 0.0776,0.07471 0.19043,0.07471 z m -1.20996,0 q 0.11279,0 0.18896,-0.07617 0.0762,-0.07617 0.0762,-0.20654303 0,-0.128905 -0.0747,-0.205077 -0.0762,-0.07764 -0.19043,-0.07764 -0.11426,0 -0.1919,0.07617 -0.0776,0.07471 -0.0776,0.206543 0,0.133301 0.0791,0.20800803 0.0776,0.07471 0.19043,0.07471 z M 418.2634,-3.621054 h -0.22706 v 1.498535 h 0.33252 V -3.19332 l 1.8003,0.832031 v -0.429199 z m 0.85546,-0.427735 0.0806,-0.325196 q -0.0234,-0.02344 -0.0439,-0.04981 -0.022,-0.02637 -0.0381,-0.06006 -0.0161,-0.03369 -0.0264,-0.07764 -0.0103,-0.04394 -0.0103,-0.104004 0,-0.08935 0.0278,-0.155273 0.0278,-0.06592 0.0791,-0.109864 0.0513,-0.04395 0.12305,-0.06445 0.0703,-0.02197 0.15527,-0.02197 0.0864,0 0.16113,0.01758 0.0747,0.01611 0.12891,0.05127 0.0542,0.03662 0.085,0.09521 0.0308,0.05713 0.0308,0.13916 0,0.133301 -0.0762,0.219727 -0.0762,0.08496 -0.21533,0.09961 v 0.401368 q 0.14795,-0.0044 0.26367,-0.06592 0.11426,-0.06299 0.19336,-0.162597 0.0791,-0.09961 0.12012,-0.227052 0.041,-0.128906 0.041,-0.266602 0,-0.18164 -0.0571,-0.314941 -0.0571,-0.133301 -0.15527,-0.221191 -0.0981,-0.08789 -0.22705,-0.130371 -0.12891,-0.04248 -0.27246,-0.04248 -0.16846,0 -0.30176,0.04394 -0.1333,0.04395 -0.22558,0.125977 -0.0923,0.0835 -0.14063,0.205078 -0.0498,0.120117 -0.0498,0.273926 0,0.108398 0.0278,0.191894 0.0278,0.0835 0.0542,0.128907 l -0.46875,-0.05127 v -0.848144 h -0.34571 v 1.183594 z m 0.23877,-3.1684575 h -0.50976 q -0.20655,0 -0.36328,0.04834 -0.15821,0.04834 -0.26514,0.137695 -0.10547,0.09082 -0.15967,0.219727 -0.0542,0.128906 -0.0542,0.290039 0,0.159668 0.0542,0.288574 0.0542,0.127442 0.15967,0.216797 0.10693,0.09082 0.26514,0.13916 0.15673,0.04834 0.36328,0.04834 h 0.50976 q 0.20655,0 0.36475,-0.04834 0.15674,-0.0498 0.26221,-0.140625 0.10693,-0.08935 0.16113,-0.218261 0.0542,-0.128907 0.0542,-0.288575 0,-0.161132 -0.0542,-0.290039 -0.0542,-0.128906 -0.16113,-0.218261 -0.10547,-0.08936 -0.26221,-0.136231 -0.1582,-0.04834 -0.36475,-0.04834 z m -0.17578,0.978516 q -0.0454,0 -0.0688,0 -0.0234,0 -0.0937,0 h -0.23584 q -0.11865,0 -0.20507,-0.01758 -0.0864,-0.01904 -0.14063,-0.05713 -0.0513,-0.03516 -0.0762,-0.08643 -0.0264,-0.05273 -0.0264,-0.121582 0,-0.06152 0.0205,-0.109863 0.019,-0.04981 0.0601,-0.0835 0.0513,-0.04395 0.13769,-0.06592 0.085,-0.02344 0.20508,-0.02637 z m 0.23731,-0.568359 q 0.11865,0 0.20654,0.01904 0.0864,0.01758 0.14209,0.0542 0.0527,0.03516 0.0791,0.08789 0.0249,0.05273 0.0249,0.121582 0,0.07471 -0.0293,0.128907 -0.0293,0.0542 -0.0894,0.08935 -0.0498,0.03076 -0.12451,0.04834 -0.0747,0.01611 -0.17139,0.01904 l -0.42187,-0.568359 q 0.0425,0 0.0659,0 0.022,0 0.0703,0 z m -0.0264,-2.248536 h -0.32959 v 1.220215 h 0.32959 z m 0.77637,-1.3710925 h -2.13282 v 0.02197 l 0.33545,0.9287105 h 0.3545 l -0.19336,-0.5390615 h 1.63623 z m -0.81153,-2.191407 h -0.50976 q -0.20655,0 -0.36328,0.04834 -0.15821,0.04834 -0.26514,0.137696 -0.10547,0.09082 -0.15967,0.219726 -0.0542,0.128906 -0.0542,0.290039 0,0.159668 0.0542,0.288574 0.0542,0.127442 0.15967,0.216797 0.10693,0.09082 0.26514,0.13916 0.15673,0.04834 0.36328,0.04834 h 0.50976 q 0.20655,0 0.36475,-0.04834 0.15674,-0.0498 0.26221,-0.140625 0.10693,-0.08936 0.16113,-0.218261 0.0542,-0.128907 0.0542,-0.288574 0,-0.161133 -0.0542,-0.29004 -0.0542,-0.128906 -0.16113,-0.218261 -0.10547,-0.08936 -0.26221,-0.136231 -0.1582,-0.04834 -0.36475,-0.04834 z m -0.17578,0.978516 q -0.0454,0 -0.0688,0 -0.0234,0 -0.0937,0 h -0.23584 q -0.11865,0 -0.20507,-0.01758 -0.0864,-0.01904 -0.14063,-0.05713 -0.0513,-0.03516 -0.0762,-0.08643 -0.0264,-0.05273 -0.0264,-0.121582 0,-0.06152 0.0205,-0.109863 0.019,-0.04981 0.0601,-0.0835 0.0513,-0.04395 0.13769,-0.06592 0.085,-0.02344 0.20508,-0.02637 z m 0.23731,-0.568359 q 0.11865,0 0.20654,0.01904 0.0864,0.01758 0.14209,0.0542 0.0527,0.03516 0.0791,0.08789 0.0249,0.05274 0.0249,0.121583 0,0.07471 -0.0293,0.128906 -0.0293,0.0542 -0.0894,0.08935 -0.0498,0.03076 -0.12451,0.04834 -0.0747,0.01611 -0.17139,0.01904 l -0.42187,-0.568359 q 0.0425,0 0.0659,0 0.022,0 0.0703,0 z m -0.0615,-2.21045 h -0.50976 q -0.20655,0 -0.36328,0.04834 -0.15821,0.04834 -0.26514,0.137696 -0.10547,0.09082 -0.15967,0.219726 -0.0542,0.128906 -0.0542,0.290039 0,0.159668 0.0542,0.288574 0.0542,0.127442 0.15967,0.216797 0.10693,0.09082 0.26514,0.13916 0.15673,0.04834 0.36328,0.04834 h 0.50976 q 0.20655,0 0.36475,-0.04834 0.15674,-0.0498 0.26221,-0.140625 0.10693,-0.08935 0.16113,-0.218261 0.0542,-0.128906 0.0542,-0.288574 0,-0.161133 -0.0542,-0.29004 -0.0542,-0.128906 -0.16113,-0.218261 -0.10547,-0.08936 -0.26221,-0.136231 -0.1582,-0.04834 -0.36475,-0.04834 z m -0.17578,0.978516 q -0.0454,0 -0.0688,0 -0.0234,0 -0.0937,0 h -0.23584 q -0.11865,0 -0.20507,-0.01758 -0.0864,-0.01904 -0.14063,-0.05713 -0.0513,-0.03516 -0.0762,-0.08643 -0.0264,-0.05273 -0.0264,-0.121582 0,-0.06152 0.0205,-0.109863 0.019,-0.04981 0.0601,-0.0835 0.0513,-0.04395 0.13769,-0.06592 0.085,-0.02344 0.20508,-0.02637 z m 0.23731,-0.568359 q 0.11865,0 0.20654,0.01904 0.0864,0.01758 0.14209,0.0542 0.0527,0.03516 0.0791,0.08789 0.0249,0.05273 0.0249,0.121582 0,0.07471 -0.0293,0.128906 -0.0293,0.0542 -0.0894,0.08935 -0.0498,0.03076 -0.12451,0.04834 -0.0747,0.01611 -0.17139,0.01904 l -0.42187,-0.568359 q 0.0425,0 0.0659,0 0.022,0 0.0703,0 z m -0.0615,-2.210451 h -0.50976 q -0.20655,0 -0.36328,0.04834 -0.15821,0.04834 -0.26514,0.137696 -0.10547,0.09082 -0.15967,0.219726 -0.0542,0.128906 -0.0542,0.290039 0,0.159668 0.0542,0.288575 0.0542,0.127442 0.15967,0.216797 0.10693,0.09082 0.26514,0.139161 0.15673,0.04834 0.36328,0.04834 h 0.50976 q 0.20655,0 0.36475,-0.04834 0.15674,-0.0498 0.26221,-0.140625 0.10693,-0.08936 0.16113,-0.218262 0.0542,-0.128907 0.0542,-0.288575 0,-0.161133 -0.0542,-0.290039 -0.0542,-0.128907 -0.16113,-0.218262 -0.10547,-0.08936 -0.26221,-0.136231 -0.1582,-0.04834 -0.36475,-0.04834 z m -0.17578,0.978517 q -0.0454,0 -0.0688,0 -0.0234,0 -0.0937,0 h -0.23584 q -0.11865,0 -0.20507,-0.01758 -0.0864,-0.01904 -0.14063,-0.05713 -0.0513,-0.03516 -0.0762,-0.08643 -0.0264,-0.05273 -0.0264,-0.121582 0,-0.06152 0.0205,-0.109863 0.019,-0.0498 0.0601,-0.0835 0.0513,-0.04394 0.13769,-0.06592 0.085,-0.02344 0.20508,-0.02637 z m 0.23731,-0.56836 q 0.11865,0 0.20654,0.01904 0.0864,0.01758 0.14209,0.0542 0.0527,0.03516 0.0791,0.08789 0.0249,0.05273 0.0249,0.121582 0,0.07471 -0.0293,0.128906 -0.0293,0.0542 -0.0894,0.08935 -0.0498,0.03076 -0.12451,0.04834 -0.0747,0.01611 -0.17139,0.01904 l -0.42187,-0.568359 q 0.0425,0 0.0659,0 0.022,0 0.0703,0 z"
         id="text1181-1-9-0-4-3-8-0-6-4-2-4-9-18-2"
         aria-label="2:750-1000" />
      <path
         style="-inkscape-font-specification:'Roboto Mono Bold';opacity:0.3;fill:#4d4d4d;stroke-width:0.150758"
         d="m 426.15356,1.000537 h 0.31641 V 0.77934703 q 0,-0.0835 0.019,-0.149414 0.019,-0.06738 0.0586,-0.115724 0.0396,-0.04687 0.10107,-0.07178 0.0615,-0.0249 0.14795,-0.0249 0.0688,0 0.12451,0.02197 0.0557,0.02051 0.0937,0.06152 0.0425,0.04248 0.0644,0.105469 0.022,0.06299 0.022,0.14209 0,0.07031 -0.0205,0.128906 -0.022,0.05859 -0.0601,0.101074 -0.0366,0.04395 -0.0879,0.06738 -0.0527,0.02344 -0.11426,0.02344 v 0.407226 q 0.15527,0 0.26953,-0.06006 0.11426,-0.06152 0.18897,-0.162598 0.0762,-0.101074 0.11426,-0.229981 0.0366,-0.13037076 0.0366,-0.26660076 0,-0.158203 -0.041,-0.294434 -0.0425,-0.137695 -0.12305,-0.237304 -0.0791,-0.09961 -0.19629,-0.156739 -0.11718,-0.05713 -0.2666,-0.05713 -0.085,0 -0.16113,0.02051 -0.0762,0.02051 -0.14062,0.06299 -0.063,0.04248 -0.1128,0.108398 -0.0498,0.06445 -0.082,0.153809 -0.0366,-0.07617 -0.0864,-0.134766 -0.0513,-0.05859 -0.11133,-0.09815 -0.0601,-0.03955 -0.12598,-0.06006 -0.0674,-0.02051 -0.13623,-0.02051 -0.14941,0 -0.26221,0.05273 -0.11425,0.05127 -0.19189,0.145021 -0.0762,0.09375 -0.11426,0.225585 -0.0396,0.131836 -0.0396,0.290039 0,0.146484 0.0425,0.27392576 0.0425,0.125976 0.11865,0.219726 0.0776,0.09375 0.18457,0.147949 0.10694,0.05273 0.23731,0.05273 V 1.044457 q -0.0586,0 -0.10547,-0.02344 -0.0469,-0.02344 -0.0806,-0.06445 -0.0322,-0.03955 -0.0498,-0.09228 -0.0176,-0.0542 -0.0176,-0.115723 0,-0.07471 0.0205,-0.130371 0.0205,-0.05713 0.0571,-0.09375 0.0381,-0.03662 0.0908,-0.0542 0.0513,-0.01904 0.11425,-0.01904 0.0645,0 0.12012,0.01904 0.0542,0.01758 0.0923,0.0542 0.0439,0.03955 0.0688,0.104004 0.0234,0.06299 0.0234,0.150879 z m 1.00928,-1.82226497 q 0.11279,0 0.18896,-0.07617 0.0762,-0.07617 0.0762,-0.20654103 0,-0.128907 -0.0747,-0.205079 -0.0762,-0.07764 -0.19043,-0.07764 -0.11426,0 -0.19189,0.07617 -0.0776,0.07471 -0.0776,0.206544 0,0.13329903 0.0791,0.20800603 0.0776,0.07471 0.19043,0.07471 z m -1.20996,0 q 0.11279,0 0.18896,-0.07617 0.0762,-0.07617 0.0762,-0.20654103 0,-0.128907 -0.0747,-0.205079 -0.0762,-0.07764 -0.19043,-0.07764 -0.11426,0 -0.1919,0.07617 -0.0776,0.07471 -0.0776,0.206544 0,0.13329903 0.0791,0.20800603 0.0776,0.07471 0.19043,0.07471 z m 1.4458,-2.36572203 h -2.13281 v 0.02197 l 0.33545,0.92871 h 0.35449 l -0.19336,-0.539061 h 1.63623 z m 0,-2.197267 h -0.32666 v 0.936035 l -0.42481,-0.401367 q -0.10693,-0.104004 -0.20361,-0.188965 -0.0981,-0.08496 -0.19189,-0.146484 -0.0937,-0.06006 -0.18897,-0.09228 -0.0967,-0.03369 -0.20215,-0.03369 -0.13916,0 -0.25341,0.04395 -0.11573,0.04395 -0.19776,0.127441 -0.082,0.08496 -0.12744,0.210937 -0.0454,0.124512 -0.0454,0.28711 0,0.169922 0.0557,0.310547 0.0542,0.13916 0.14942,0.237305 0.0952,0.09961 0.22265,0.153809 0.12598,0.0542 0.26807,0.0542 v -0.408692 q -0.0864,0 -0.15381,-0.02197 -0.0674,-0.02197 -0.11279,-0.06445 -0.0439,-0.04102 -0.0659,-0.102539 -0.0234,-0.06299 -0.0234,-0.14502 0,-0.06299 0.0205,-0.114257 0.0205,-0.05273 0.0586,-0.09082 0.0396,-0.03662 0.0952,-0.05713 0.0557,-0.02051 0.12744,-0.02051 0.0483,0 0.0996,0.01611 0.0513,0.01465 0.10986,0.04834 0.0601,0.03516 0.13184,0.09082 0.0718,0.05566 0.15967,0.136231 l 0.74121,0.689942 h 0.27832 z m -0.81152,-1.7944335 h -0.50977 q -0.20654,0 -0.36328,0.04834 -0.1582,0.04834 -0.26514,0.137696 -0.10547,0.09082 -0.15967,0.219726 -0.0542,0.128906 -0.0542,0.290039 0,0.159668 0.0542,0.288574 0.0542,0.127442 0.15967,0.216797 0.10694,0.09082 0.26514,0.139161 0.15674,0.04834 0.36328,0.04834 h 0.50977 q 0.20654,0 0.36474,-0.04834 0.15674,-0.04981 0.26221,-0.140625 0.10693,-0.08936 0.16113,-0.218262 0.0542,-0.128906 0.0542,-0.288574 0,-0.161133 -0.0542,-0.290039 -0.0542,-0.128907 -0.16113,-0.218262 -0.10547,-0.08936 -0.26221,-0.136231 -0.1582,-0.04834 -0.36474,-0.04834 z m -0.17579,0.978516 q -0.0454,0 -0.0688,0 -0.0234,0 -0.0937,0 h -0.23584 q -0.11865,0 -0.20508,-0.01758 -0.0864,-0.01904 -0.14063,-0.05713 -0.0513,-0.03516 -0.0762,-0.08643 -0.0264,-0.05273 -0.0264,-0.121582 0,-0.06152 0.0205,-0.109863 0.019,-0.0498 0.0601,-0.0835 0.0513,-0.04395 0.1377,-0.06592 0.085,-0.02344 0.20508,-0.02637 z m 0.23731,-0.568359 q 0.11865,0 0.20654,0.01904 0.0864,0.01758 0.14209,0.0542 0.0527,0.03516 0.0791,0.08789 0.0249,0.05273 0.0249,0.121582 0,0.07471 -0.0293,0.128906 -0.0293,0.0542 -0.0894,0.08936 -0.0498,0.03076 -0.12451,0.04834 -0.0747,0.01611 -0.17138,0.01904 l -0.42188,-0.568359 q 0.0425,0 0.0659,0 0.022,0 0.0703,0 z m -0.0264,-2.248535 h -0.32959 v 1.220214 h 0.32959 z m -0.46875,-0.783692 h 0.31641 v -0.2211905 q 0,-0.0835 0.019,-0.149414 0.019,-0.06738 0.0586,-0.115723 0.0396,-0.04687 0.10107,-0.07178 0.0615,-0.0249 0.14795,-0.0249 0.0688,0 0.12451,0.02197 0.0557,0.02051 0.0937,0.06152 0.0425,0.04248 0.0644,0.105469 0.022,0.06299 0.022,0.14209 0,0.07031 -0.0205,0.1289055 -0.022,0.05859 -0.0601,0.101075 -0.0366,0.04394 -0.0879,0.06738 -0.0527,0.02344 -0.11426,0.02344 v 0.407226 q 0.15527,0 0.26953,-0.06006 0.11426,-0.06152 0.18897,-0.162598 0.0762,-0.101074 0.11426,-0.22998 0.0366,-0.130371 0.0366,-0.2666015 0,-0.158203 -0.041,-0.294433 -0.0425,-0.137696 -0.12305,-0.237305 -0.0791,-0.09961 -0.19629,-0.156738 -0.11718,-0.05713 -0.2666,-0.05713 -0.085,0 -0.16113,0.02051 -0.0762,0.02051 -0.14062,0.06299 -0.063,0.04248 -0.1128,0.108398 -0.0498,0.06445 -0.082,0.153809 -0.0366,-0.07617 -0.0864,-0.134766 -0.0513,-0.05859 -0.11133,-0.09814 -0.0601,-0.03955 -0.12598,-0.06006 -0.0674,-0.02051 -0.13623,-0.02051 -0.14941,0 -0.26221,0.05273 -0.11425,0.05127 -0.19189,0.145019 -0.0762,0.09375 -0.11426,0.225586 -0.0396,0.131836 -0.0396,0.290039 0,0.1464835 0.0425,0.2739255 0.0425,0.125976 0.11865,0.219726 0.0776,0.09375 0.18457,0.14795 0.10694,0.05273 0.23731,0.05273 v -0.407227 q -0.0586,0 -0.10547,-0.02344 -0.0469,-0.02344 -0.0806,-0.06445 -0.0322,-0.03955 -0.0498,-0.09229 -0.0176,-0.0542 -0.0176,-0.1157225 0,-0.07471 0.0205,-0.130371 0.0205,-0.05713 0.0571,-0.09375 0.0381,-0.03662 0.0908,-0.0542 0.0513,-0.01904 0.11425,-0.01904 0.0645,0 0.12012,0.01904 0.0542,0.01758 0.0923,0.0542 0.0439,0.03955 0.0688,0.104004 0.0234,0.06299 0.0234,0.150879 z m 1.24512,-2.7846675 h -0.32666 v 0.936035 l -0.42481,-0.401367 q -0.10693,-0.104004 -0.20361,-0.188965 -0.0981,-0.08496 -0.19189,-0.146484 -0.0937,-0.06006 -0.18897,-0.09228 -0.0967,-0.03369 -0.20215,-0.03369 -0.13916,0 -0.25341,0.04395 -0.11573,0.04395 -0.19776,0.127441 -0.082,0.08496 -0.12744,0.210938 -0.0454,0.124511 -0.0454,0.287109 0,0.169922 0.0557,0.310547 0.0542,0.13916 0.14942,0.237305 0.0952,0.09961 0.22265,0.153808 0.12598,0.0542 0.26807,0.0542 v -0.408691 q -0.0864,0 -0.15381,-0.02197 -0.0674,-0.02197 -0.11279,-0.06445 -0.0439,-0.04102 -0.0659,-0.102539 -0.0234,-0.06299 -0.0234,-0.145019 0,-0.06299 0.0205,-0.114258 0.0205,-0.05273 0.0586,-0.09082 0.0396,-0.03662 0.0952,-0.05713 0.0557,-0.02051 0.12744,-0.02051 0.0483,0 0.0996,0.01611 0.0513,0.01465 0.10986,0.04834 0.0601,0.03516 0.13184,0.09082 0.0718,0.05566 0.15967,0.136231 l 0.74121,0.689941 h 0.27832 z m -0.81152,-1.794433 h -0.50977 q -0.20654,0 -0.36328,0.04834 -0.1582,0.04834 -0.26514,0.137696 -0.10547,0.09082 -0.15967,0.219726 -0.0542,0.128907 -0.0542,0.290039 0,0.159668 0.0542,0.288575 0.0542,0.127441 0.15967,0.216796 0.10694,0.09082 0.26514,0.139161 0.15674,0.04834 0.36328,0.04834 h 0.50977 q 0.20654,0 0.36474,-0.04834 0.15674,-0.04981 0.26221,-0.140625 0.10693,-0.08936 0.16113,-0.218262 0.0542,-0.128906 0.0542,-0.288574 0,-0.161133 -0.0542,-0.290039 -0.0542,-0.128907 -0.16113,-0.218262 -0.10547,-0.08936 -0.26221,-0.136231 -0.1582,-0.04834 -0.36474,-0.04834 z m -0.17579,0.978515 q -0.0454,0 -0.0688,0 -0.0234,0 -0.0937,0 H 426.013 q -0.11865,0 -0.20508,-0.01758 -0.0864,-0.01904 -0.14063,-0.05713 -0.0513,-0.03516 -0.0762,-0.08643 -0.0264,-0.05273 -0.0264,-0.121582 0,-0.06152 0.0205,-0.109863 0.019,-0.0498 0.0601,-0.0835 0.0513,-0.04395 0.1377,-0.06592 0.085,-0.02344 0.20508,-0.02637 z m 0.23731,-0.568359 q 0.11865,0 0.20654,0.01904 0.0864,0.01758 0.14209,0.0542 0.0527,0.03516 0.0791,0.08789 0.0249,0.05273 0.0249,0.121582 0,0.07471 -0.0293,0.128906 -0.0293,0.0542 -0.0894,0.08936 -0.0498,0.03076 -0.12451,0.04834 -0.0747,0.01611 -0.17138,0.01904 l -0.42188,-0.568359 q 0.0425,0 0.0659,0 0.022,0 0.0703,0 z"
         id="text1181-1-9-0-4-3-0-5-6-5-2-5-5-9-76-9"
         aria-label="3:120-320" />
      <path
         style="-inkscape-font-specification:'Roboto Mono Bold';opacity:0.3;fill:#4d4d4d;stroke-width:0.150758"
         d="m 433.82782,0.16703503 h -1.34033 v 0.413085 l 1.41503,0.89648397 0.25489,-0.01611 V 0.57426203 h 0.46289 v -0.407224 h -0.46289 v -0.24756 h -0.32959 z m 0,0.90966797 -0.72217,-0.46289197 -0.0703,-0.03955 h 0.79248 z m 0.55664,-1.95263797 q 0.11279,0 0.18896,-0.07617 0.0762,-0.07617 0.0762,-0.20654303 0,-0.128907 -0.0747,-0.205078 -0.0762,-0.07764 -0.19043,-0.07764 -0.11426,0 -0.1919,0.07617 -0.0776,0.07471 -0.0776,0.206543 0,0.133301 0.0791,0.20800803 0.0776,0.07471 0.19043,0.07471 z m -1.20996,0 q 0.11279,0 0.18896,-0.07617 0.0762,-0.07617 0.0762,-0.20654303 0,-0.128907 -0.0747,-0.205078 -0.0762,-0.07764 -0.19043,-0.07764 -0.11426,0 -0.1919,0.07617 -0.0776,0.07471 -0.0776,0.206543 0,0.133301 0.0791,0.20800803 0.0776,0.07471 0.19043,0.07471 z m 1.4458,-2.36572203 h -2.13281 v 0.02197 l 0.33544,0.928711 h 0.3545 l -0.19336,-0.539062 h 1.63623 z m -1.05029,-0.823242 0.0806,-0.325196 q -0.0234,-0.02344 -0.0439,-0.04981 -0.022,-0.02637 -0.0381,-0.06006 -0.0161,-0.03369 -0.0264,-0.07764 -0.0103,-0.04395 -0.0103,-0.104004 0,-0.08935 0.0278,-0.155273 0.0278,-0.06592 0.0791,-0.109864 0.0513,-0.04394 0.12305,-0.06445 0.0703,-0.02197 0.15527,-0.02197 0.0864,0 0.16114,0.01758 0.0747,0.01611 0.1289,0.05127 0.0542,0.03662 0.085,0.09521 0.0308,0.05713 0.0308,0.13916 0,0.133301 -0.0762,0.219727 -0.0762,0.08496 -0.21533,0.09961 v 0.401368 q 0.14795,-0.0044 0.26367,-0.06592 0.11426,-0.06299 0.19336,-0.162597 0.0791,-0.09961 0.12012,-0.227052 0.041,-0.128906 0.041,-0.266602 0,-0.18164 -0.0571,-0.314941 -0.0571,-0.133301 -0.15528,-0.221191 -0.0981,-0.08789 -0.22705,-0.130372 -0.1289,-0.04248 -0.27246,-0.04248 -0.16846,0 -0.30176,0.04395 -0.1333,0.04395 -0.22558,0.125977 -0.0923,0.0835 -0.14063,0.205078 -0.0498,0.120117 -0.0498,0.273926 0,0.108398 0.0278,0.191894 0.0278,0.0835 0.0542,0.128907 l -0.46875,-0.05127 v -0.848145 h -0.3457 v 1.183595 z m 0.23876,-3.1684575 h -0.50976 q -0.20654,0 -0.36328,0.04834 -0.15821,0.04834 -0.26514,0.137695 -0.10547,0.09082 -0.15967,0.219727 -0.0542,0.128906 -0.0542,0.290039 0,0.159668 0.0542,0.288574 0.0542,0.127442 0.15967,0.216797 0.10693,0.09082 0.26514,0.13916 0.15674,0.04834 0.36328,0.04834 h 0.50976 q 0.20655,0 0.36475,-0.04834 0.15674,-0.0498 0.26221,-0.140625 0.10693,-0.08935 0.16113,-0.218261 0.0542,-0.128907 0.0542,-0.288575 0,-0.161132 -0.0542,-0.290039 -0.0542,-0.128906 -0.16113,-0.218261 -0.10547,-0.08936 -0.26221,-0.136231 -0.1582,-0.04834 -0.36475,-0.04834 z m -0.17578,0.978516 q -0.0454,0 -0.0688,0 -0.0234,0 -0.0937,0 h -0.23584 q -0.11866,0 -0.20508,-0.01758 -0.0864,-0.01904 -0.14063,-0.05713 -0.0513,-0.03516 -0.0762,-0.08643 -0.0264,-0.05273 -0.0264,-0.121582 0,-0.06152 0.0205,-0.109863 0.019,-0.0498 0.0601,-0.0835 0.0513,-0.04395 0.1377,-0.06592 0.085,-0.02344 0.20507,-0.02637 z m 0.23731,-0.56836 q 0.11865,0 0.20654,0.01904 0.0864,0.01758 0.14209,0.0542 0.0527,0.03516 0.0791,0.08789 0.0249,0.05273 0.0249,0.121582 0,0.07471 -0.0293,0.128907 -0.0293,0.0542 -0.0894,0.08935 -0.0498,0.03076 -0.12451,0.04834 -0.0747,0.01611 -0.17139,0.01904 l -0.42187,-0.56836 q 0.0425,0 0.0659,0 0.022,0 0.0703,0 z m -0.0264,-2.248535 h -0.32959 v 1.220215 h 0.32959 z m -0.46875,-0.783691 h 0.31641 v -0.2211905 q 0,-0.0835 0.019,-0.149415 0.019,-0.06738 0.0586,-0.115722 0.0396,-0.04687 0.10108,-0.07178 0.0615,-0.0249 0.14795,-0.0249 0.0688,0 0.12451,0.02197 0.0557,0.02051 0.0937,0.06152 0.0425,0.04248 0.0645,0.105469 0.022,0.06299 0.022,0.14209 0,0.07031 -0.0205,0.1289055 -0.022,0.05859 -0.0601,0.101074 -0.0366,0.04395 -0.0879,0.06738 -0.0527,0.02344 -0.11426,0.02344 v 0.407226 q 0.15527,0 0.26953,-0.06006 0.11426,-0.06152 0.18897,-0.162598 0.0762,-0.101074 0.11425,-0.229981 0.0366,-0.130371 0.0366,-0.2666005 0,-0.158203 -0.041,-0.294434 -0.0425,-0.137695 -0.12305,-0.237304 -0.0791,-0.09961 -0.19629,-0.156739 -0.11718,-0.05713 -0.2666,-0.05713 -0.085,0 -0.16113,0.02051 -0.0762,0.02051 -0.14063,0.06299 -0.063,0.04248 -0.11279,0.108399 -0.0498,0.06445 -0.082,0.153809 -0.0366,-0.07617 -0.0864,-0.134766 -0.0513,-0.05859 -0.11132,-0.09815 -0.0601,-0.03955 -0.12598,-0.06006 -0.0674,-0.02051 -0.13623,-0.02051 -0.14942,0 -0.26221,0.05273 -0.11426,0.05127 -0.19189,0.14502 -0.0762,0.09375 -0.11426,0.225586 -0.0396,0.131836 -0.0396,0.290039 0,0.1464835 0.0425,0.2739255 0.0425,0.125976 0.11865,0.219726 0.0776,0.09375 0.18457,0.147949 0.10694,0.05273 0.23731,0.05273 v -0.407227 q -0.0586,0 -0.10547,-0.02344 -0.0469,-0.02344 -0.0806,-0.06445 -0.0322,-0.03955 -0.0498,-0.09229 -0.0176,-0.054199 -0.0176,-0.1157215 0,-0.07471 0.0205,-0.130371 0.0205,-0.05713 0.0571,-0.09375 0.0381,-0.03662 0.0908,-0.0542 0.0513,-0.01904 0.11425,-0.01904 0.0645,0 0.12012,0.01904 0.0542,0.01758 0.0923,0.0542 0.0439,0.03955 0.0688,0.104004 0.0234,0.06299 0.0234,0.150879 z m 0.43359,-2.7788085 h -0.50976 q -0.20654,0 -0.36328,0.04834 -0.15821,0.04834 -0.26514,0.137695 -0.10547,0.09082 -0.15967,0.219727 -0.0542,0.128906 -0.0542,0.290039 0,0.159668 0.0542,0.288574 0.0542,0.127442 0.15967,0.216797 0.10693,0.09082 0.26514,0.13916 0.15674,0.04834 0.36328,0.04834 h 0.50976 q 0.20655,0 0.36475,-0.04834 0.15674,-0.0498 0.26221,-0.140625 0.10693,-0.08935 0.16113,-0.218261 0.0542,-0.128907 0.0542,-0.288575 0,-0.161132 -0.0542,-0.290039 -0.0542,-0.128906 -0.16113,-0.218261 -0.10547,-0.08936 -0.26221,-0.136231 -0.1582,-0.04834 -0.36475,-0.04834 z m -0.17578,0.978516 q -0.0454,0 -0.0688,0 -0.0234,0 -0.0937,0 h -0.23584 q -0.11866,0 -0.20508,-0.01758 -0.0864,-0.01904 -0.14063,-0.05713 -0.0513,-0.03516 -0.0762,-0.08643 -0.0264,-0.05273 -0.0264,-0.121582 0,-0.06152 0.0205,-0.109863 0.019,-0.04981 0.0601,-0.0835 0.0513,-0.04395 0.1377,-0.06592 0.085,-0.02344 0.20507,-0.02637 z m 0.23731,-0.568359 q 0.11865,0 0.20654,0.01904 0.0864,0.01758 0.14209,0.0542 0.0527,0.03516 0.0791,0.08789 0.0249,0.05273 0.0249,0.121582 0,0.07471 -0.0293,0.128907 -0.0293,0.0542 -0.0894,0.08935 -0.0498,0.03076 -0.12451,0.04834 -0.0747,0.01611 -0.17139,0.01904 l -0.42187,-0.568359 q 0.0425,0 0.0659,0 0.022,0 0.0703,0 z m -0.0615,-2.21045 h -0.50976 q -0.20654,0 -0.36328,0.04834 -0.15821,0.04834 -0.26514,0.137696 -0.10547,0.09082 -0.15967,0.219726 -0.0542,0.128906 -0.0542,0.290039 0,0.159668 0.0542,0.288574 0.0542,0.127442 0.15967,0.216797 0.10693,0.09082 0.26514,0.13916 0.15674,0.04834 0.36328,0.04834 h 0.50976 q 0.20655,0 0.36475,-0.04834 0.15674,-0.0498 0.26221,-0.140625 0.10693,-0.08935 0.16113,-0.218261 0.0542,-0.128907 0.0542,-0.288575 0,-0.161132 -0.0542,-0.290039 -0.0542,-0.128906 -0.16113,-0.218261 -0.10547,-0.08936 -0.26221,-0.136231 -0.1582,-0.04834 -0.36475,-0.04834 z m -0.17578,0.978516 q -0.0454,0 -0.0688,0 -0.0234,0 -0.0937,0 h -0.23584 q -0.11866,0 -0.20508,-0.01758 -0.0864,-0.01904 -0.14063,-0.05713 -0.0513,-0.03516 -0.0762,-0.08643 -0.0264,-0.05273 -0.0264,-0.121582 0,-0.06152 0.0205,-0.109863 0.019,-0.0498 0.0601,-0.0835 0.0513,-0.04395 0.1377,-0.06592 0.085,-0.02344 0.20507,-0.02637 z m 0.23731,-0.568359 q 0.11865,0 0.20654,0.01904 0.0864,0.01758 0.14209,0.0542 0.0527,0.03516 0.0791,0.08789 0.0249,0.05273 0.0249,0.121582 0,0.07471 -0.0293,0.128907 -0.0293,0.0542 -0.0894,0.08935 -0.0498,0.03076 -0.12451,0.04834 -0.0747,0.01611 -0.17139,0.01904 l -0.42187,-0.568359 q 0.0425,0 0.0659,0 0.022,0 0.0703,0 z"
         id="text1181-1-9-0-4-3-0-3-5-6-4-2-8-5-1-0-7"
         aria-label="4:150-300" />
      <path
         style="-inkscape-font-specification:'Roboto Mono';fill:#4d4d4d;stroke-width:0.135683"
         d="m 396.27728,6.407039 h 0.70005 q 0.1582,0 0.28476,-0.0356 0.12657,-0.0356 0.2149,-0.106787 0.0883,-0.07119 0.13579,-0.176661 0.0475,-0.105468 0.0475,-0.243896 0,-0.07251 -0.0198,-0.139746 -0.0185,-0.06855 -0.058,-0.126563 -0.0382,-0.05405 -0.0949,-0.09492 -0.0554,-0.04087 -0.15029,-0.06724 v -0.0013 q 0.0488,-0.01846 0.0883,-0.04483 0.0409,-0.02637 0.0725,-0.05801 0.058,-0.05801 0.087,-0.134473 0.0303,-0.07778 0.0316,-0.164795 0,-0.134473 -0.0501,-0.23335 -0.0488,-0.09888 -0.13975,-0.163476 -0.091,-0.0646 -0.22017,-0.09624 -0.12788,-0.03164 -0.28476,-0.03164 h -0.64468 z m 0.37178,-0.846386 h 0.34541 q 0.0778,0.0013 0.13447,0.02109 0.0567,0.01978 0.0923,0.05669 0.0356,0.0356 0.0514,0.08701 0.0171,0.05142 0.0171,0.116015 0,0.06196 -0.0224,0.112061 -0.0211,0.0501 -0.0633,0.08569 -0.0382,0.03164 -0.0962,0.0501 -0.0567,0.01846 -0.1292,0.01846 h -0.32959 z m 0,-0.267627 V 4.789412 h 0.27422 q 0.0896,0.0013 0.15556,0.01978 0.0672,0.01846 0.10679,0.05933 0.0303,0.029 0.0448,0.07251 0.0158,0.04351 0.0158,0.101513 0,0.05537 -0.0184,0.09888 -0.0171,0.04351 -0.0501,0.07383 -0.0396,0.03823 -0.10415,0.05801 -0.0646,0.01846 -0.14898,0.01978 z m 2.51806,-0.601172 V 4.487508 h -1.34868 v 0.299268 h 0.96372 l -0.74883,1.620263 h 0.38628 z m 0.73565,0.59458 v 0.284765 h 0.19907 q 0.0752,0 0.13447,0.01714 0.0607,0.01714 0.10415,0.05273 0.0422,0.0356 0.0646,0.09097 0.0224,0.05537 0.0224,0.133155 0,0.06196 -0.0198,0.11206 -0.0185,0.0501 -0.0554,0.08437 -0.0382,0.03823 -0.0949,0.05801 -0.0567,0.01978 -0.12788,0.01978 -0.0633,0 -0.11602,-0.01846 -0.0527,-0.01977 -0.091,-0.05405 -0.0396,-0.03296 -0.0606,-0.0791 -0.0211,-0.04746 -0.0211,-0.102832 h -0.36651 q 0,0.139746 0.054,0.242578 0.0554,0.102832 0.14634,0.170069 0.091,0.06855 0.20698,0.102832 0.11734,0.03296 0.23995,0.03296 0.14238,0 0.26499,-0.03691 0.12392,-0.03823 0.21357,-0.110742 0.0897,-0.07119 0.14107,-0.17666 0.0514,-0.105469 0.0514,-0.239941 0,-0.07646 -0.0185,-0.14502 -0.0185,-0.06855 -0.0567,-0.126562 -0.0382,-0.05669 -0.0976,-0.101514 -0.058,-0.04482 -0.13843,-0.07383 0.0685,-0.03296 0.12129,-0.07778 0.0527,-0.04614 0.0883,-0.100196 0.0356,-0.05405 0.0541,-0.113379 0.0185,-0.06064 0.0185,-0.122607 0,-0.134473 -0.0475,-0.235986 -0.0462,-0.102832 -0.13052,-0.172705 -0.0844,-0.06855 -0.20303,-0.102832 -0.11865,-0.0356 -0.26103,-0.0356 -0.13184,0 -0.24654,0.03823 -0.11338,0.03823 -0.19775,0.106787 -0.0844,0.06987 -0.13316,0.166114 -0.0475,0.09624 -0.0475,0.213574 h 0.36651 q 0,-0.05273 0.0211,-0.09492 0.0211,-0.04219 0.058,-0.07251 0.0356,-0.029 0.0831,-0.04482 0.0488,-0.01582 0.10415,-0.01582 0.0672,0 0.11733,0.01846 0.0514,0.01846 0.0844,0.05142 0.033,0.03428 0.0488,0.08174 0.0171,0.04614 0.0171,0.102832 0,0.05801 -0.0171,0.108106 -0.0158,0.04878 -0.0488,0.08306 -0.0356,0.03955 -0.0936,0.06196 -0.0567,0.02109 -0.13579,0.02109 z"
         id="text1181-1-9-8-2-2-7-9-7-9-5-2-33-2-9-4-8-2-0-5"
         aria-label="B73" />
      <path
         style="-inkscape-font-specification:'Roboto Mono';opacity:0.3;fill:#4d4d4d;stroke-width:0.135683"
         d="m 396.28244,13.649746 h 0.70005 q 0.15821,0 0.28477,-0.0356 0.12656,-0.0356 0.21489,-0.106787 0.0883,-0.07119 0.13579,-0.17666 0.0475,-0.105469 0.0475,-0.243897 0,-0.07251 -0.0198,-0.139746 -0.0185,-0.06856 -0.058,-0.126562 -0.0382,-0.05405 -0.0949,-0.09492 -0.0554,-0.04087 -0.15029,-0.06724 v -0.0013 q 0.0488,-0.01846 0.0883,-0.04482 0.0409,-0.02637 0.0725,-0.05801 0.058,-0.05801 0.087,-0.134473 0.0303,-0.07778 0.0316,-0.164795 0,-0.134472 -0.0501,-0.233349 -0.0488,-0.09888 -0.13975,-0.163477 -0.091,-0.0646 -0.22016,-0.09624 -0.12788,-0.03164 -0.28477,-0.03164 h -0.64468 z m 0.37178,-0.846387 h 0.34541 q 0.0778,0.0013 0.13448,0.02109 0.0567,0.01978 0.0923,0.05669 0.0356,0.0356 0.0514,0.08701 0.0171,0.05142 0.0171,0.116015 0,0.06196 -0.0224,0.112061 -0.0211,0.0501 -0.0633,0.08569 -0.0382,0.03164 -0.0962,0.0501 -0.0567,0.01846 -0.1292,0.01846 h -0.32959 z m 0,-0.267627 v -0.503613 h 0.27422 q 0.0897,0.0013 0.15557,0.01977 0.0672,0.01846 0.10678,0.05933 0.0303,0.029 0.0448,0.07251 0.0158,0.04351 0.0158,0.101514 0,0.05537 -0.0185,0.09888 -0.0171,0.0435 -0.0501,0.07383 -0.0396,0.03823 -0.10415,0.05801 -0.0646,0.01846 -0.14897,0.01977 z m 1.51612,0.822656 h -0.0251 v 0.307178 h 0.0277 q 0.25445,0 0.4377,-0.07778 0.18325,-0.0791 0.3019,-0.220166 0.11865,-0.139746 0.17534,-0.332227 0.0567,-0.19248 0.0567,-0.421875 v -0.126562 q 0,-0.171387 -0.0448,-0.315088 -0.0435,-0.143701 -0.12656,-0.247852 -0.0844,-0.10415 -0.20435,-0.162158 -0.11997,-0.05801 -0.27026,-0.05801 -0.14766,0 -0.26631,0.05405 -0.11734,0.05273 -0.20039,0.145019 -0.0831,0.09229 -0.12788,0.216211 -0.0435,0.122608 -0.0435,0.262354 0,0.135791 0.0356,0.254443 0.0369,0.117334 0.1081,0.204346 0.0699,0.08701 0.17403,0.137109 0.10415,0.0501 0.24126,0.0501 0.0646,0 0.11865,-0.01055 0.0541,-0.01187 0.0976,-0.03164 0.0409,-0.01714 0.0751,-0.04087 0.0343,-0.02373 0.062,-0.05142 v 0.0079 q -0.0132,0.105469 -0.0541,0.191163 -0.0396,0.08438 -0.11074,0.142382 -0.0738,0.06065 -0.18193,0.09229 -0.10811,0.03164 -0.25576,0.03164 z m 0.33618,-0.614355 q -0.0712,0 -0.12393,-0.029 -0.0527,-0.03032 -0.087,-0.08042 -0.0356,-0.0501 -0.0527,-0.117334 -0.0171,-0.06724 -0.0171,-0.141065 0,-0.07383 0.0185,-0.141064 0.0185,-0.06856 0.0527,-0.121289 0.0343,-0.05142 0.0844,-0.08174 0.0514,-0.03164 0.11602,-0.03164 0.0593,0 0.11074,0.02637 0.0514,0.02637 0.0897,0.0791 0.0382,0.05273 0.0593,0.131836 0.0224,0.0791 0.0224,0.18457 v 0.130518 q -0.0158,0.04087 -0.0422,0.07646 -0.0251,0.03428 -0.0593,0.05933 -0.0356,0.02637 -0.0791,0.04087 -0.0422,0.0145 -0.0923,0.0145 z m 2.28603,-0.809473 v -0.204346 h -1.34868 v 0.299268 h 0.96372 l -0.74883,1.620264 h 0.38628 z"
         id="text1181-1-9-8-2-2-7-9-7-9-5-2-33-2-2-3-7-0-2-9-6"
         aria-label="B97" />
      <path
         style="-inkscape-font-specification:'Roboto Mono';opacity:0.3;fill:#4d4d4d;stroke-width:0.135683"
         d="m 394.66746,20.864086 v -1.919531 h -0.36651 v 0.78706 h -0.54316 v -0.78706 h -0.36782 v 1.919531 h 0.36782 v -0.831885 h 0.54316 v 0.831885 z m 0.74751,-0.704004 h 0.28608 q 0.15688,0 0.28345,-0.04482 0.12656,-0.04482 0.21621,-0.125244 0.0883,-0.0791 0.13579,-0.188526 0.0488,-0.109424 0.0488,-0.238623 0,-0.138428 -0.0488,-0.251807 -0.0475,-0.113378 -0.13579,-0.195117 -0.0897,-0.08042 -0.21621,-0.125244 -0.12657,-0.04614 -0.28345,-0.04614 h -0.65654 v 1.919531 h 0.37046 z m 0,-0.300586 v -0.614355 h 0.28608 q 0.0791,0 0.13711,0.02505 0.058,0.02505 0.0976,0.06855 0.0382,0.04351 0.0567,0.101514 0.0198,0.05801 0.0198,0.125244 0,0.05801 -0.0198,0.11206 -0.0185,0.05273 -0.0567,0.0936 -0.0395,0.04087 -0.0976,0.0646 -0.058,0.02373 -0.13711,0.02373 z m 1.60839,-0.116016 v 0.284766 h 0.19908 q 0.0751,0 0.13447,0.01714 0.0606,0.01714 0.10415,0.05273 0.0422,0.0356 0.0646,0.09097 0.0224,0.05537 0.0224,0.133154 0,0.06196 -0.0198,0.112061 -0.0185,0.0501 -0.0554,0.08438 -0.0382,0.03823 -0.0949,0.05801 -0.0567,0.01978 -0.12788,0.01978 -0.0633,0 -0.11601,-0.01846 -0.0527,-0.01978 -0.091,-0.05405 -0.0396,-0.03296 -0.0607,-0.0791 -0.0211,-0.04746 -0.0211,-0.102832 h -0.3665 q 0,0.139746 0.054,0.242578 0.0554,0.102832 0.14634,0.170068 0.091,0.06856 0.20698,0.102832 0.11733,0.03296 0.23994,0.03296 0.14238,0 0.26499,-0.03691 0.12393,-0.03823 0.21358,-0.110742 0.0896,-0.07119 0.14106,-0.17666 0.0514,-0.105469 0.0514,-0.239942 0,-0.07646 -0.0185,-0.145019 -0.0185,-0.06856 -0.0567,-0.126563 -0.0382,-0.05669 -0.0976,-0.101513 -0.058,-0.04483 -0.13843,-0.07383 0.0686,-0.03296 0.12129,-0.07778 0.0527,-0.04614 0.0883,-0.100195 0.0356,-0.05405 0.0541,-0.113379 0.0184,-0.06065 0.0184,-0.122607 0,-0.134473 -0.0475,-0.235987 -0.0461,-0.102832 -0.13052,-0.172705 -0.0844,-0.06856 -0.20302,-0.102832 -0.11866,-0.0356 -0.26104,-0.0356 -0.13183,0 -0.24653,0.03823 -0.11338,0.03823 -0.19776,0.106787 -0.0844,0.06987 -0.13315,0.166113 -0.0475,0.09624 -0.0475,0.213574 h 0.3665 q 0,-0.05273 0.0211,-0.09492 0.0211,-0.04219 0.058,-0.07251 0.0356,-0.029 0.0831,-0.04482 0.0488,-0.01582 0.10415,-0.01582 0.0672,0 0.11734,0.01846 0.0514,0.01846 0.0844,0.05142 0.033,0.03428 0.0488,0.08174 0.0171,0.04614 0.0171,0.102832 0,0.05801 -0.0171,0.108105 -0.0158,0.04878 -0.0488,0.08306 -0.0356,0.03955 -0.0936,0.06196 -0.0567,0.02109 -0.13579,0.02109 z m 2.50093,0.390235 v -0.458789 q 0,-0.185889 -0.0435,-0.326953 -0.0435,-0.142383 -0.12393,-0.238624 -0.0817,-0.09492 -0.19775,-0.143701 -0.11602,-0.04878 -0.26104,-0.04878 -0.1437,0 -0.25972,0.04878 -0.11469,0.04878 -0.19511,0.143701 -0.0817,0.09624 -0.12525,0.238624 -0.0435,0.141064 -0.0435,0.326953 v 0.458789 q 0,0.185888 0.0435,0.328271 0.0448,0.141065 0.12657,0.235987 0.0804,0.09624 0.19643,0.145019 0.11602,0.04878 0.25972,0.04878 0.14502,0 0.26103,-0.04878 0.11602,-0.04878 0.19644,-0.145019 0.0804,-0.09492 0.12261,-0.235987 0.0435,-0.142383 0.0435,-0.328271 z m -0.88066,-0.158203 q 0,-0.04087 0,-0.06196 0,-0.02109 0,-0.08437 v -0.212256 q 0,-0.106787 0.0158,-0.18457 0.0171,-0.07778 0.0514,-0.126563 0.0316,-0.04614 0.0778,-0.06856 0.0475,-0.02373 0.10942,-0.02373 0.0554,0 0.0989,0.01846 0.0448,0.01714 0.0751,0.05405 0.0396,0.04614 0.0593,0.123925 0.0211,0.07646 0.0237,0.184571 z m 0.51152,0.213574 q 0,0.106787 -0.0171,0.185889 -0.0158,0.07778 -0.0488,0.12788 -0.0316,0.04746 -0.0791,0.07119 -0.0475,0.02241 -0.10942,0.02241 -0.0672,0 -0.11602,-0.02637 -0.0488,-0.02637 -0.0804,-0.08042 -0.0277,-0.04482 -0.0435,-0.112061 -0.0145,-0.06724 -0.0171,-0.154248 l 0.51152,-0.379687 q 0,0.03823 0,0.05933 0,0.01977 0,0.06328 z m 1.6374,0.675 v -1.919531 h -0.0198 l -0.83584,0.301904 v 0.319043 l 0.48515,-0.174024 v 1.472608 z"
         id="text1181-1-9-8-2-2-7-9-7-9-5-2-33-2-3-7-0-8-2-5-5"
         aria-label="HP301" />
      <path
         style="-inkscape-font-specification:'Roboto Mono';fill:#4d4d4d;stroke-width:0.135683"
         d="m 395.59294,27.043522 0.47461,0.788379 h 0.44033 l -0.66973,-1.070508 0.646,-0.849023 h -0.45351 l -0.4667,0.644678 -0.17403,0.234668 V 25.91237 h -0.37177 v 1.919531 h 0.37177 v -0.565576 z m 1.28672,1.364502 q 0.11074,0 0.19116,-0.03691 0.0817,-0.03691 0.13843,-0.09097 0.0567,-0.05405 0.0936,-0.117334 0.0382,-0.06328 0.062,-0.117334 l 0.72377,-1.640039 h -0.40473 l -0.32564,0.838477 -0.0541,0.142383 -0.0395,-0.14502 -0.32695,-0.83584 h -0.40078 l 0.6038,1.365821 -0.0844,0.156884 q -0.0158,0.029 -0.0277,0.04482 -0.0105,0.01582 -0.0343,0.04746 -0.0237,0.03164 -0.058,0.05801 -0.033,0.02769 -0.0765,0.02769 -0.0211,0 -0.0567,-0.0026 -0.0343,-0.0013 -0.0567,-0.0013 l -0.0448,0.279492 q 0.0475,0.01318 0.0857,0.01978 0.0396,0.0066 0.0923,0.0066 z m 2.6499,-0.576123 v -0.293994 h -0.84243 l 0.36123,-0.382324 q 0.0936,-0.09624 0.17007,-0.183252 0.0765,-0.08833 0.13183,-0.172705 0.0541,-0.08438 0.0831,-0.170069 0.0303,-0.08701 0.0303,-0.181933 0,-0.125244 -0.0395,-0.228076 -0.0396,-0.104151 -0.11469,-0.177979 -0.0765,-0.07383 -0.18985,-0.114697 -0.11206,-0.04087 -0.2584,-0.04087 -0.15293,0 -0.27949,0.0501 -0.12524,0.04878 -0.21357,0.134473 -0.0897,0.08569 -0.13843,0.200391 -0.0488,0.113379 -0.0488,0.241259 h 0.36782 q 0,-0.07778 0.0198,-0.138427 0.0198,-0.06065 0.058,-0.101514 0.0369,-0.03955 0.0923,-0.05933 0.0567,-0.02109 0.13052,-0.02109 0.0567,0 0.10283,0.01846 0.0475,0.01846 0.0817,0.05273 0.033,0.0356 0.0514,0.08569 0.0185,0.0501 0.0185,0.114697 0,0.04351 -0.0145,0.08965 -0.0132,0.04614 -0.0435,0.09888 -0.0316,0.05405 -0.0817,0.118652 -0.0501,0.0646 -0.12261,0.143701 l -0.62095,0.66709 v 0.250488 z m 1.26299,0 V 25.91237 h -0.0198 l -0.83584,0.301904 v 0.319043 l 0.48516,-0.174023 v 1.472607 z"
         id="text1181-1-9-8-2-2-7-9-7-9-5-2-33-2-6-8-5-1-5-6-3"
         aria-label="Ky21" />
      <path
         style="-inkscape-font-specification:'Roboto Mono';fill:#4d4d4d;stroke-width:0.135683"
         d="m 395.11965,33.394349 h -0.46011 v 1.919532 h 0.34013 v -0.568213 l -0.0158,-0.862207 0.22544,0.797607 h 0.18326 l 0.2518,-0.833203 -0.0158,0.897803 v 0.568213 h 0.34014 v -1.919532 h -0.46011 l -0.20698,0.721143 z m 1.12851,1.193116 v 0.02769 q 0,0.156885 0.0448,0.290039 0.0448,0.131836 0.13183,0.229395 0.0857,0.09756 0.21094,0.152929 0.12656,0.05405 0.2874,0.05405 0.15952,0 0.28477,-0.05405 0.12524,-0.05537 0.21093,-0.152929 0.0857,-0.09756 0.13052,-0.229395 0.0448,-0.133154 0.0448,-0.290039 v -0.02769 q 0,-0.155567 -0.0448,-0.287403 -0.0448,-0.133154 -0.13052,-0.230713 -0.087,-0.09756 -0.21225,-0.152929 -0.12525,-0.05537 -0.28609,-0.05537 -0.16084,0 -0.28608,0.05537 -0.12393,0.05537 -0.20962,0.152929 -0.087,0.09756 -0.13183,0.230713 -0.0448,0.131836 -0.0448,0.287403 z m 0.3665,0.02769 v -0.02769 q 0,-0.08701 0.0171,-0.164795 0.0171,-0.07778 0.0541,-0.13711 0.0369,-0.05933 0.0949,-0.0936 0.058,-0.03428 0.13974,-0.03428 0.0831,0 0.14107,0.03428 0.058,0.03428 0.0949,0.0936 0.0356,0.05933 0.0527,0.13711 0.0171,0.07778 0.0171,0.164795 v 0.02769 q 0,0.08965 -0.0171,0.16875 -0.0171,0.07778 -0.0527,0.135791 -0.0369,0.05933 -0.0949,0.0936 -0.058,0.03428 -0.13843,0.03428 -0.0831,0 -0.14238,-0.03428 -0.058,-0.03428 -0.0949,-0.0936 -0.0369,-0.05801 -0.0541,-0.135791 -0.0171,-0.0791 -0.0171,-0.16875 z m 2.20166,0.698731 v -1.919532 h -0.0198 l -0.83584,0.301905 v 0.319043 l 0.48516,-0.174024 v 1.472608 z m 1.97623,-1.715186 v -0.204346 h -1.34869 v 0.299268 h 0.96372 l -0.74882,1.620264 h 0.38628 z"
         id="text1181-1-9-8-2-2-7-9-7-9-5-2-33-2-37-2-3-1-0-2-0"
         aria-label="Mo17" />
    </g>
  </g>
</svg>
